<svg width="74" height="74" viewBox="0 0 74 74" fill="none" xmlns="http://www.w3.org/2000/svg">
<g clip-path="url(#clip0_1_31)">
<path d="M37.1364 0.632202C16.9855 0.632202 0.59375 17.0256 0.59375 37.1748C0.59375 57.3241 16.9855 73.7174 37.1364 73.7174C57.2872 73.7174 73.679 57.3241 73.679 37.1748C73.679 17.0256 57.2872 0.632202 37.1364 0.632202ZM37.1364 70.6722C18.6658 70.6722 3.63892 55.6454 3.63892 37.1748C3.63892 18.7042 18.6658 3.67737 37.1364 3.67737C55.6069 3.67737 70.6338 18.7042 70.6338 37.1748C70.6338 55.6454 55.6069 70.6722 37.1364 70.6722Z" fill="white"/>
<path d="M51.664 35.8946L30.3475 22.1911C29.8806 21.8863 29.277 21.8699 28.7952 22.1346C28.3044 22.4022 28.0011 22.9138 28.0011 23.4714V50.8783C28.0011 51.4359 28.3044 51.9475 28.7952 52.2151C29.0212 52.3386 29.274 52.401 29.5238 52.401C29.8092 52.401 30.0977 52.3206 30.3475 52.1586L51.664 38.4551C52.0982 38.1756 52.3629 37.6923 52.3629 37.1748C52.3629 36.6574 52.0982 36.1742 51.664 35.8946ZM31.0463 48.0888V26.2609L48.024 37.1748L31.0463 48.0888Z" fill="white"/>
</g>
<defs>
<clipPath id="clip0_1_31">
<rect width="73.0852" height="73.0852" fill="white" transform="translate(0.59375 0.632202)"/>
</clipPath>
</defs>
</svg>
